# xmcd
#
# Track frame offsets:
# 150
# 14662
# 28532
# 42715
# 56027
# 69885
# 82622
# 96792
# 109902
# 125445
# 139262
# 154327
# 168827
# 183295
# 197105
# 210950
# 225580
# 238767
# 254012
# 269207
# 283077
# 297890
# 311315
# 326352
#
# Disc length: 4539 seconds
#
#
# Revision: 2
# Processed by: cddbd v1.5.2PL0 Copyright (c) Steve Scherf et al.
# Submitted via: FreeRIP 2.951 
#
DISCID=5d11b918
DTITLE=Frank Sinatra - Greatest Hits 1940 - 1947 disc II
DYEAR=2000
DGENRE=Jazz
TTITLE0=Sweet Loraine
TTITLE1=Dream
TTITLE2=If I loved you
TTITLE3=I couldn't sleep a wink last night
TTITLE4=All through the day
TTITLE5=Aint'tcha ever comin' back
TTITLE6=They say it's wonderful
TTITLE7=What makes the sunset
TTITLE8=Homesick - that's all
TTITLE9=Oh! What it seemed to be
TTITLE10=Sunday, Monday, or always
TTITLE11=I dream of you
TTITLE12=Day by day
TTITLE13=I should care
TTITLE14=Full moon and empty arms
TTITLE15=People will say we're in love
TTITLE16=oh, what a beautiful morning
TTITLE17=The things we did last Summer
TTITLE18=The house I live in
TTITLE19=From this day forward
TTITLE20=This is the night
TTITLE21=Something old, something new
TTITLE22=Close to you
TTITLE23=The girl that I marry
EXTD=YEAR: 2000
EXTT0=
EXTT1=
EXTT2=
EXTT3=
EXTT4=
EXTT5=
EXTT6=
EXTT7=
EXTT8=
EXTT9=
EXTT10=
EXTT11=
EXTT12=
EXTT13=
EXTT14=
EXTT15=
EXTT16=
EXTT17=
EXTT18=
EXTT19=
EXTT20=
EXTT21=
EXTT22=
EXTT23=
PLAYORDER=
